<?xml version="1.0" encoding="utf-8"?>
<!-- Generator: Adobe Illustrator 22.0.0, SVG Export Plug-In . SVG Version: 6.00 Build 0)  -->
<svg version="1.1" id="Layer_1" xmlns="http://www.w3.org/2000/svg" xmlns:xlink="http://www.w3.org/1999/xlink" x="0px" y="0px"
	 viewBox="0 0 537 171" style="enable-background:new 0 0 537 171;" xml:space="preserve">
<style type="text/css">
	.st0{fill:#FFFFFF;}
</style>
<g>
	<circle class="st0" cx="109.9" cy="64.7" r="12.5"/>
	<circle class="st0" cx="59.9" cy="64.7" r="12.5"/>
	<path class="st0" d="M84.9,106.1c6.9,0,12.5-5.6,12.5-12.5h-25C72.4,100.6,78,106.1,84.9,106.1z"/>
	<path class="st0" d="M84.9,0.1C38,0.1,0,35.5,0,79.2c0,43.7,38,79.1,84.9,79.1c8.5,0,16.6-1.2,24.3-3.3l28.9,16v-30.2
		c19.3-14.5,31.6-36.7,31.6-61.6C169.8,35.5,131.8,0.1,84.9,0.1z M139.8,111.1c0,8.3-6.7,15-15,15H44.9c-8.3,0-15-6.7-15-15V47.2
		c0-8.3,6.7-15,15-15h28.4l11.5-20l11.5,20h28.4c8.3,0,15,6.7,15,15V111.1z"/>
	<g>
		<path class="st0" d="M229.4,23.8h-14.6c-2.7,0-4.9-2.2-4.9-4.9s2.1-4.9,4.9-4.9h39.9c2.7,0,4.8,2.2,4.8,4.9s-2.1,4.9-4.8,4.9
			h-14.7v45.5c0,2.9-2.4,5.2-5.3,5.2c-2.9,0-5.3-2.3-5.3-5.2V23.8z"/>
		<path class="st0" d="M263.9,16.2c0-2.8,2.2-5.2,5.2-5.2c2.9,0,5.2,2.3,5.2,5.2v19.6c2.9-4.2,7.1-7.9,14.2-7.9
			c10.2,0,16.2,6.9,16.2,17.4v24.2c0,2.9-2.2,5.2-5.2,5.2s-5.2-2.2-5.2-5.2v-21c0-7-3.5-11.1-9.7-11.1c-6,0-10.2,4.2-10.2,11.3v20.9
			c0,2.9-2.3,5.2-5.2,5.2c-2.8,0-5.2-2.2-5.2-5.2V16.2z"/>
		<path class="st0" d="M332.8,75.2c-13.1,0-23.3-9.5-23.3-23.5v-0.2c0-13,9.2-23.6,22.2-23.6c14.4,0,21.6,11.9,21.6,22.3
			c0,2.9-2.2,5-4.9,5H320c1.1,7.4,6.4,11.5,13.1,11.5c4.4,0,7.8-1.5,10.7-4c0.8-0.6,1.5-0.9,2.7-0.9c2.3,0,4.1,1.8,4.1,4.2
			c0,1.3-0.6,2.4-1.4,3.2C345,72.9,339.9,75.2,332.8,75.2z M343.1,48.3c-0.7-6.7-4.6-11.9-11.5-11.9c-6.4,0-10.8,4.9-11.8,11.9
			H343.1z"/>
		<path class="st0" d="M380.6,19.4c0-3,2.3-5.3,5.3-5.3h21.6c6.9,0,12.3,1.9,15.7,5.3c2.7,2.7,4,5.9,4,10v0.2
			c0,7.2-4.1,11.1-8.6,13.4c7,2.4,11.9,6.4,11.9,14.6v0.2c0,10.7-8.8,16.5-22.3,16.5h-22.5c-3,0-5.3-2.3-5.3-5.3V19.4z M405.4,39.4
			c6.8,0,11.3-2.7,11.3-8.2V31c0-4.7-3.8-7.6-10.6-7.6H391v16H405.4z M408.5,64.8c7.2,0,11.6-2.8,11.6-8.2v-0.2
			c0-5.1-4-8.1-12.4-8.1H391v16.5H408.5z"/>
		<path class="st0" d="M433.8,51.7v-0.2c0-13,10.3-23.7,24.2-23.7s24.1,10.6,24.1,23.5v0.2c0,12.9-10.3,23.6-24.3,23.6
			C444,75.2,433.8,64.6,433.8,51.7z M471.8,51.7v-0.2c0-8-5.8-14.6-13.9-14.6c-8.3,0-13.7,6.5-13.7,14.4v0.2
			c0,7.9,5.8,14.5,13.8,14.5C466.4,66.1,471.8,59.6,471.8,51.7z"/>
		<path class="st0" d="M489.7,61.6V37.7H488c-2.5,0-4.5-2-4.5-4.5s2-4.5,4.5-4.5h1.7v-7.7c0-2.8,2.3-5.2,5.2-5.2
			c2.8,0,5.2,2.3,5.2,5.2v7.7h8.2c2.5,0,4.6,2,4.6,4.5s-2.1,4.5-4.6,4.5h-8.2V60c0,4,2.1,5.7,5.6,5.7c1.2,0,2.2-0.3,2.6-0.3
			c2.3,0,4.4,1.9,4.4,4.3c0,1.9-1.3,3.4-2.7,4c-2.2,0.8-4.4,1.2-7.1,1.2C495.1,74.9,489.7,71.6,489.7,61.6z"/>
	</g>
	<g>
		<g>
			<path class="st0" d="M228.3,97.8c0-1.8,1.4-3.2,3.1-3.2h20.7c6.4,0,11.4,1.8,14.6,5c2.3,2.4,3.6,5.4,3.6,9v0.2
				c0,7.3-4.5,11-8.9,12.9c6.6,2,12,5.8,12,13.5v0.2c0,9.6-8.1,15.3-20.3,15.3h-21.7c-1.7,0-3.1-1.4-3.1-3.2V97.8z M251.1,119.5
				c7.6,0,12.9-3.4,12.9-10v-0.2c0-5.5-4.4-9.1-12.4-9.1h-17v19.3H251.1z M253.4,144.9c8.5,0,13.7-3.8,13.7-10v-0.2
				c0-6.1-5.1-9.6-14.9-9.6h-17.7v19.7H253.4z"/>
			<path class="st0" d="M315.6,147.8c0,1.7-1.3,3.1-3,3.1c-1.7,0-3-1.4-3-3.1v-4.5c-2.8,4.5-7,8.1-14.1,8.1
				c-10,0-15.8-6.7-15.8-16.5v-22.9c0-1.8,1.3-3.1,3-3.1c1.7,0,3.1,1.4,3.1,3.1v21.4c0,7.7,4.2,12.5,11.4,12.5
				c7,0,12.4-5.2,12.4-12.9v-20.9c0-1.8,1.3-3.1,3-3.1c1.7,0,3,1.4,3,3.1V147.8z"/>
			<path class="st0" d="M322.4,146.1c-0.6-0.4-1.1-1.2-1.1-2.2c0-1.4,1.2-2.6,2.7-2.6c0.6,0,1.1,0.2,1.5,0.5
				c4.2,2.9,8.6,4.4,13.1,4.4c5,0,8.6-2.6,8.6-6.6v-0.2c0-4.2-4.9-5.8-10.3-7.3c-6.5-1.8-13.7-4.1-13.7-11.7v-0.2
				c0-7.1,5.9-11.8,14.1-11.8c4.4,0,9.2,1.4,13.2,3.5c0.8,0.5,1.5,1.4,1.5,2.6c0,1.4-1.2,2.6-2.7,2.6c-0.6,0-1-0.2-1.4-0.3
				c-3.5-2-7.3-3.2-10.8-3.2c-4.9,0-8,2.6-8,6v0.2c0,3.9,5.1,5.4,10.6,7.1c6.4,1.9,13.3,4.4,13.3,11.8v0.2c0,7.8-6.5,12.4-14.7,12.4
				C332.9,151.3,326.9,149.3,322.4,146.1z"/>
			<path class="st0" d="M359.6,96.3c0-2,1.6-3.3,3.6-3.3c2.1,0,3.7,1.3,3.7,3.3v1c0,1.9-1.6,3.3-3.7,3.3c-2,0-3.6-1.4-3.6-3.3V96.3z
				 M360.2,111.9c0-1.7,1.4-3.1,3-3.1c1.8,0,3.1,1.4,3.1,3.1v35.9c0,1.8-1.3,3.1-3,3.1c-1.8,0-3.1-1.4-3.1-3.1V111.9z"/>
			<path class="st0" d="M375.9,111.9c0-1.7,1.4-3.1,3-3.1c1.8,0,3.1,1.4,3.1,3.1v4.5c2.7-4.5,7-8.1,14.1-8.1
				c10,0,15.8,6.7,15.8,16.5v22.9c0,1.8-1.4,3.1-3,3.1c-1.8,0-3.1-1.4-3.1-3.1v-21.4c0-7.7-4.2-12.5-11.4-12.5
				c-7.1,0-12.4,5.2-12.4,12.9v20.9c0,1.8-1.3,3.1-3,3.1c-1.8,0-3.1-1.4-3.1-3.1V111.9z"/>
			<path class="st0" d="M438.4,151.5c-11.3,0-20.6-8.7-20.6-21.5v-0.2c0-11.9,8.4-21.5,19.8-21.5c12.2,0,19.2,10,19.2,20.9
				c0,1.7-1.4,2.9-2.9,2.9H424c0.9,9,7.2,14,14.5,14c5.1,0,8.9-2,11.9-4.8c0.5-0.4,1-0.7,1.8-0.7c1.5,0,2.7,1.2,2.7,2.6
				c0,0.7-0.3,1.4-1,2C450,149,445.4,151.5,438.4,151.5z M450.6,127.6c-0.6-7.5-5-14.1-13.2-14.1c-7.2,0-12.6,6-13.4,14.1H450.6z"/>
			<path class="st0" d="M460.6,146.1c-0.6-0.4-1.1-1.2-1.1-2.2c0-1.4,1.2-2.6,2.7-2.6c0.6,0,1.1,0.2,1.5,0.5
				c4.2,2.9,8.6,4.4,13.1,4.4c5,0,8.6-2.6,8.6-6.6v-0.2c0-4.2-4.9-5.8-10.3-7.3c-6.5-1.8-13.7-4.1-13.7-11.7v-0.2
				c0-7.1,5.9-11.8,14.1-11.8c4.4,0,9.2,1.4,13.2,3.5c0.8,0.5,1.5,1.4,1.5,2.6c0,1.4-1.2,2.6-2.7,2.6c-0.6,0-1-0.2-1.4-0.3
				c-3.5-2-7.3-3.2-10.8-3.2c-4.9,0-8,2.6-8,6v0.2c0,3.9,5.1,5.4,10.6,7.1c6.4,1.9,13.3,4.4,13.3,11.8v0.2c0,7.8-6.5,12.4-14.7,12.4
				C471,151.3,465,149.3,460.6,146.1z"/>
			<path class="st0" d="M495.6,146.1c-0.6-0.4-1.1-1.2-1.1-2.2c0-1.4,1.2-2.6,2.7-2.6c0.6,0,1.1,0.2,1.5,0.5
				c4.2,2.9,8.6,4.4,13.1,4.4c5,0,8.6-2.6,8.6-6.6v-0.2c0-4.2-4.9-5.8-10.3-7.3c-6.5-1.8-13.7-4.1-13.7-11.7v-0.2
				c0-7.1,5.9-11.8,14.1-11.8c4.4,0,9.2,1.4,13.2,3.5c0.8,0.5,1.5,1.4,1.5,2.6c0,1.4-1.2,2.6-2.7,2.6c-0.6,0-1-0.2-1.4-0.3
				c-3.5-2-7.3-3.2-10.8-3.2c-4.9,0-8,2.6-8,6v0.2c0,3.9,5.1,5.4,10.6,7.1c6.4,1.9,13.3,4.4,13.3,11.8v0.2c0,7.8-6.5,12.4-14.7,12.4
				C506,151.3,500,149.3,495.6,146.1z"/>
		</g>
	</g>
	<g>
		<path class="st0" d="M520,17h-3c-0.3,0-0.6-0.2-0.6-0.5c0-0.3,0.3-0.6,0.6-0.6h7.3c0.3,0,0.6,0.3,0.6,0.6c0,0.3-0.3,0.5-0.6,0.5
			h-3v8.9c0,0.3-0.3,0.6-0.6,0.6c-0.3,0-0.6-0.3-0.6-0.6V17z"/>
		<path class="st0" d="M527,16.4c0-0.3,0.3-0.6,0.6-0.6h0.1c0.3,0,0.4,0.1,0.6,0.3l3.7,5.6l3.7-5.6c0.1-0.2,0.3-0.3,0.6-0.3h0.1
			c0.3,0,0.6,0.3,0.6,0.6v9.4c0,0.3-0.3,0.6-0.6,0.6c-0.3,0-0.6-0.3-0.6-0.6V18l-3.4,4.9c-0.1,0.2-0.3,0.3-0.5,0.3
			c-0.2,0-0.4-0.1-0.5-0.3l-3.3-4.9v7.8c0,0.3-0.3,0.6-0.6,0.6c-0.3,0-0.6-0.3-0.6-0.6V16.4z"/>
	</g>
</g>
</svg>
