<?xml version="1.0" encoding="utf-8"?>
<!-- Generator: Adobe Illustrator 22.0.0, SVG Export Plug-In . SVG Version: 6.00 Build 0)  -->
<svg version="1.1" id="Layer_1" xmlns="http://www.w3.org/2000/svg" xmlns:xlink="http://www.w3.org/1999/xlink" x="0px" y="0px"
	 viewBox="0 0 600 200" style="enable-background:new 0 0 600 200;" xml:space="preserve">
<style type="text/css">
	.st0{fill:#FFFFFF;}
</style>
<path class="st0" d="M116.2,14.5c-46.9,0-85,35.4-85,79.2c0,43.7,38,79.2,85,79.2c8.5,0,16.7-1.2,24.4-3.3l28.9,16v-30.2
	c19.3-14.5,31.7-36.7,31.7-61.6C201.2,49.9,163.1,14.5,116.2,14.5z M53.2,103.7c0,2.8-2.2,5-5,5s-5-2.2-5-5v-20c0-2.8,2.2-5,5-5
	s5,2.2,5,5V103.7z M116.2,23.6c3.9,0,7,3.1,7,7c0,3.9-3.1,7-7,7c-3.9,0-7-3.1-7-7C109.2,26.7,112.3,23.6,116.2,23.6z M171.2,125.7
	c0,8.3-6.7,15-15,15h-80c-8.3,0-15-6.7-15-15v-64c0-8.3,6.7-15,15-15h80c8.3,0,15,6.7,15,15V125.7z M184.2,108.7c-2.8,0-5-2.2-5-5
	v-20c0-2.8,2.2-5,5-5s5,2.2,5,5v20C189.2,106.4,187,108.7,184.2,108.7z M104.4,79.2c0,6.9-5.6,12.5-12.5,12.5s-12.5-5.6-12.5-12.5
	c0-6.9,5.6-12.5,12.5-12.5S104.4,72.2,104.4,79.2z M152.9,79.2c0,6.9-5.6,12.5-12.5,12.5s-12.5-5.6-12.5-12.5
	c0-6.9,5.6-12.5,12.5-12.5C147.3,66.7,152.9,72.2,152.9,79.2z M116.2,120.7c6.9,0,12.5-5.6,12.5-12.5h-25
	C103.7,115.1,109.3,120.7,116.2,120.7z M260.9,38.3h-14.6c-2.8,0-4.9-2.2-4.9-4.9s2.2-4.9,4.9-4.9h40c2.7,0,4.8,2.2,4.8,4.9
	s-2.2,4.9-4.8,4.9h-14.7v45.6c0,2.9-2.4,5.2-5.3,5.2c-2.9,0-5.3-2.3-5.3-5.2V38.3z M295.4,30.6c0-2.8,2.2-5.2,5.2-5.2
	s5.2,2.3,5.2,5.2v19.6c2.9-4.2,7.1-7.9,14.2-7.9c10.2,0,16.2,6.9,16.2,17.4v24.3c0,2.9-2.2,5.2-5.2,5.2s-5.2-2.2-5.2-5.2V62.9
	c0-7.1-3.5-11.1-9.7-11.1c-6,0-10.2,4.2-10.2,11.3v20.9c0,2.9-2.3,5.2-5.2,5.2c-2.8,0-5.2-2.2-5.2-5.2V30.6z M364.4,89.7
	c-13.2,0-23.3-9.5-23.3-23.6v-0.2c0-13,9.2-23.6,22.2-23.6c14.4,0,21.6,11.9,21.6,22.4c0,2.9-2.2,5-4.9,5h-28.5
	c1.1,7.4,6.4,11.5,13.1,11.5c4.4,0,7.8-1.5,10.8-4c0.8-0.6,1.5-0.9,2.7-0.9c2.3,0,4.1,1.8,4.1,4.2c0,1.3-0.6,2.4-1.4,3.2
	C376.6,87.4,371.5,89.7,364.4,89.7z M374.7,62.8c-0.7-6.7-4.6-12-11.5-12c-6.4,0-10.8,4.9-11.8,12H374.7z M412.2,33.8
	c0-3,2.3-5.3,5.3-5.3h21.7c6.9,0,12.3,1.9,15.7,5.3c2.7,2.7,4,5.9,4,10v0.2c0,7.2-4.1,11.1-8.6,13.4c7.1,2.4,12,6.5,12,14.6v0.2
	c0,10.8-8.9,16.5-22.3,16.5h-22.5c-3,0-5.3-2.3-5.3-5.3V33.8z M437.1,53.8c6.8,0,11.4-2.7,11.4-8.2v-0.2c0-4.7-3.8-7.7-10.6-7.7
	h-15.2v16H437.1z M440.2,79.3c7.2,0,11.6-2.8,11.6-8.3v-0.2c0-5.1-4-8.1-12.4-8.1h-16.8v16.5H440.2z M465.5,66.2V66
	c0-13,10.3-23.7,24.3-23.7s24.2,10.6,24.2,23.6V66c0,12.9-10.3,23.6-24.3,23.6C475.7,89.7,465.5,79.1,465.5,66.2z M503.5,66.2V66
	c0-8-5.8-14.6-13.9-14.6c-8.3,0-13.7,6.5-13.7,14.4V66c0,7.9,5.8,14.5,13.8,14.5C498.1,80.6,503.5,74,503.5,66.2z M521.4,76.1V52.2
	h-1.7c-2.5,0-4.5-2-4.5-4.5s2-4.5,4.5-4.5h1.7v-7.7c0-2.8,2.3-5.2,5.2-5.2c2.8,0,5.2,2.3,5.2,5.2v7.7h8.2c2.5,0,4.6,2,4.6,4.5
	s-2.1,4.5-4.6,4.5h-8.2v22.3c0,4,2.1,5.7,5.6,5.7c1.2,0,2.2-0.3,2.6-0.3c2.3,0,4.4,1.9,4.4,4.3c0,1.9-1.3,3.4-2.8,4
	c-2.2,0.8-4.4,1.2-7.1,1.2C526.9,89.4,521.4,86.1,521.4,76.1z M259.8,112.3c0-1.8,1.4-3.2,3.1-3.2h20.7c6.4,0,11.4,1.8,14.6,5
	c2.3,2.4,3.6,5.4,3.6,9v0.2c0,7.3-4.5,11-8.9,13c6.6,2,12,5.8,12,13.5v0.2c0,9.6-8.1,15.3-20.3,15.3h-21.8c-1.7,0-3.1-1.4-3.1-3.2
	V112.3z M282.6,134.1c7.6,0,12.9-3.4,12.9-10v-0.2c0-5.5-4.4-9.1-12.4-9.1h-17v19.3H282.6z M284.8,159.4c8.5,0,13.8-3.8,13.8-10
	v-0.2c0-6.1-5.1-9.6-14.9-9.6H266v19.8H284.8z M347.2,162.4c0,1.7-1.3,3.1-3,3.1c-1.7,0-3-1.4-3-3.1v-4.5c-2.8,4.5-7,8.1-14.2,8.1
	c-10,0-15.8-6.7-15.8-16.6v-23c0-1.8,1.3-3.1,3-3.1c1.7,0,3.1,1.4,3.1,3.1v21.4c0,7.7,4.2,12.5,11.4,12.5c7,0,12.4-5.2,12.4-13v-21
	c0-1.8,1.3-3.1,3-3.1c1.7,0,3,1.4,3,3.1V162.4z M354,160.7c-0.6-0.4-1.1-1.2-1.1-2.2c0-1.4,1.2-2.6,2.7-2.6c0.6,0,1.1,0.2,1.5,0.5
	c4.2,2.9,8.6,4.4,13.1,4.4c5,0,8.6-2.6,8.6-6.6V154c0-4.2-4.9-5.8-10.3-7.3c-6.5-1.8-13.7-4.1-13.7-11.7v-0.2
	c0-7.1,5.9-11.8,14.1-11.8c4.4,0,9.2,1.4,13.2,3.5c0.8,0.5,1.5,1.4,1.5,2.6c0,1.4-1.2,2.6-2.7,2.6c-0.6,0-1-0.2-1.4-0.3
	c-3.5-2-7.3-3.2-10.8-3.2c-4.9,0-8,2.6-8,6v0.2c0,3.9,5.1,5.4,10.6,7.1c6.4,1.9,13.3,4.4,13.3,11.8v0.2c0,7.8-6.5,12.4-14.7,12.4
	C364.4,165.9,358.4,163.9,354,160.7z M391.2,110.8c0-2,1.6-3.3,3.6-3.3c2.1,0,3.7,1.3,3.7,3.3v1c0,1.9-1.6,3.3-3.7,3.3
	c-2,0-3.6-1.4-3.6-3.3V110.8z M391.8,126.5c0-1.7,1.4-3.1,3-3.1c1.8,0,3.1,1.4,3.1,3.1v35.9c0,1.8-1.3,3.1-3,3.1s-3.1-1.4-3.1-3.1
	V126.5z M407.5,126.5c0-1.7,1.4-3.1,3-3.1c1.8,0,3.1,1.4,3.1,3.1v4.5c2.7-4.5,7-8.1,14.2-8.1c10,0,15.8,6.7,15.8,16.6v23
	c0,1.8-1.4,3.1-3,3.1c-1.8,0-3.1-1.4-3.1-3.1v-21.4c0-7.7-4.2-12.5-11.4-12.5c-7.1,0-12.4,5.2-12.4,13v21c0,1.8-1.3,3.1-3,3.1
	s-3.1-1.4-3.1-3.1V126.5z M470,166.1c-11.4,0-20.6-8.7-20.6-21.5v-0.2c0-11.9,8.4-21.5,19.8-21.5c12.2,0,19.2,10,19.2,21
	c0,1.7-1.4,2.9-2.9,2.9h-29.9c0.9,9,7.2,14,14.6,14c5.1,0,8.9-2,11.9-4.8c0.5-0.4,1-0.7,1.8-0.7c1.5,0,2.7,1.2,2.7,2.6
	c0,0.7-0.3,1.4-1,2C481.7,163.6,477.1,166.1,470,166.1z M482.3,142.1c-0.6-7.5-5-14.1-13.2-14.1c-7.2,0-12.6,6-13.4,14.1H482.3z
	 M492.3,160.7c-0.6-0.4-1.1-1.2-1.1-2.2c0-1.4,1.2-2.6,2.7-2.6c0.6,0,1.1,0.2,1.5,0.5c4.2,2.9,8.6,4.4,13.1,4.4c5,0,8.6-2.6,8.6-6.6
	V154c0-4.2-4.9-5.8-10.3-7.3c-6.5-1.8-13.7-4.1-13.7-11.7v-0.2c0-7.1,5.9-11.8,14.1-11.8c4.4,0,9.2,1.4,13.2,3.5
	c0.8,0.5,1.5,1.4,1.5,2.6c0,1.4-1.2,2.6-2.7,2.6c-0.6,0-1-0.2-1.4-0.3c-3.5-2-7.3-3.2-10.8-3.2c-4.9,0-8,2.6-8,6v0.2
	c0,3.9,5.1,5.4,10.6,7.1c6.4,1.9,13.3,4.4,13.3,11.8v0.2c0,7.8-6.5,12.4-14.7,12.4C502.8,165.9,496.8,163.9,492.3,160.7z
	 M527.3,160.7c-0.6-0.4-1.1-1.2-1.1-2.2c0-1.4,1.2-2.6,2.7-2.6c0.6,0,1.1,0.2,1.5,0.5c4.2,2.9,8.6,4.4,13.1,4.4c5,0,8.6-2.6,8.6-6.6
	V154c0-4.2-4.9-5.8-10.3-7.3c-6.5-1.8-13.7-4.1-13.7-11.7v-0.2c0-7.1,5.9-11.8,14.1-11.8c4.4,0,9.2,1.4,13.2,3.5
	c0.8,0.5,1.5,1.4,1.5,2.6c0,1.4-1.2,2.6-2.7,2.6c-0.6,0-1-0.2-1.4-0.3c-3.5-2-7.3-3.2-10.8-3.2c-4.9,0-8,2.6-8,6v0.2
	c0,3.9,5.1,5.4,10.6,7.1c6.4,1.9,13.3,4.4,13.3,11.8v0.2c0,7.8-6.5,12.4-14.7,12.4C537.8,165.9,531.8,163.9,527.3,160.7z
	 M551.8,31.4h-3c-0.3,0-0.6-0.2-0.6-0.5s0.3-0.6,0.6-0.6h7.3c0.3,0,0.6,0.3,0.6,0.6s-0.3,0.5-0.6,0.5h-3v8.9c0,0.3-0.3,0.6-0.6,0.6
	s-0.6-0.3-0.6-0.6V31.4z M558.7,30.9c0-0.3,0.3-0.6,0.6-0.6h0.1c0.3,0,0.4,0.1,0.6,0.3l3.8,5.6l3.8-5.6c0.1-0.2,0.3-0.3,0.6-0.3h0.1
	c0.3,0,0.6,0.3,0.6,0.6v9.4c0,0.3-0.3,0.6-0.6,0.6c-0.3,0-0.6-0.3-0.6-0.6v-7.8l-3.4,4.9c-0.1,0.2-0.3,0.3-0.5,0.3s-0.4-0.1-0.5-0.3
	l-3.3-4.9v7.8c0,0.3-0.3,0.6-0.6,0.6c-0.3,0-0.6-0.3-0.6-0.6V30.9z"/>
</svg>
